<?xml version="1.0" standalone="no"?>
<!DOCTYPE svg PUBLIC "-//W3C//DTD SVG 20010904//EN"
 "http://www.w3.org/TR/2001/REC-SVG-20010904/DTD/svg10.dtd">
<svg version="1.0" xmlns="http://www.w3.org/2000/svg"
 width="152.000000pt" height="152.000000pt" viewBox="0 0 152.000000 152.000000"
 preserveAspectRatio="xMidYMid meet">
<metadata>
Created by potrace 1.14, written by Peter Selinger 2001-2017
</metadata>
<g transform="translate(0.000000,152.000000) scale(0.100000,-0.100000)"
fill="#000000" stroke="none">
<path d="M392 997 c-49 -23 -62 -73 -62 -232 0 -158 7 -185 56 -224 34 -26
137 -30 172 -5 33 23 52 67 52 119 l0 45 -50 0 -50 0 0 -43 c0 -46 -13 -67
-42 -67 -29 0 -38 42 -38 173 0 140 5 164 32 172 30 10 48 -13 48 -61 l0 -44
50 0 50 0 0 48 c0 56 -28 108 -66 122 -34 13 -123 12 -152 -3z"/>
<path d="M730 997 c0 -2 -20 -104 -45 -227 -25 -123 -45 -227 -45 -232 0 -4
22 -8 50 -8 l49 0 7 50 7 50 38 0 38 0 7 -50 7 -50 48 0 c27 0 49 4 49 8 0 5
-20 109 -45 232 -25 123 -45 225 -45 227 0 2 -27 3 -60 3 -33 0 -60 -1 -60 -3z
m78 -239 c9 -57 9 -58 -16 -58 -24 0 -24 1 -17 57 4 31 10 63 13 72 7 18 6 21
20 -71z"/>
<path d="M930 965 c0 -33 2 -35 35 -35 l35 0 0 -200 0 -200 55 0 55 0 0 200 0
200 35 0 c33 0 35 2 35 35 l0 35 -125 0 -125 0 0 -35z"/>
</g>
</svg>
