<svg xmlns="http://www.w3.org/2000/svg" width="78" height="81" fill="none" viewBox="0 0 78 81"><path fill="#fff" d="M64.016 35.632H14.03c-1.754 0-3.182-1.418-3.182-3.161v-9.472c0-1.744 1.428-3.163 3.182-3.163h49.984c1.754 0 3.18 1.42 3.18 3.163v9.472c0 1.743-1.426 3.161-3.18 3.161ZM14.03 22.26a.752.752 0 0 0-.744.739v9.472c0 .407.334.739.744.739h49.984c.41 0 .743-.332.743-.739V23a.75.75 0 0 0-.743-.74H14.03Z"/><path fill="#fff" d="M57.045 68.082H20.999c-3.377 0-6.125-2.731-6.125-6.089V34.421c0-.669.546-1.212 1.219-1.212s1.219.543 1.219 1.212v27.572c0 2.022 1.654 3.666 3.687 3.666h36.046c2.032 0 3.686-1.644 3.686-3.666V34.421c0-.669.546-1.212 1.219-1.212.672 0 1.218.543 1.218 1.212v27.572c0 3.358-2.747 6.089-6.123 6.089Z"/><path fill="#fff" d="M39.023 68.082a1.215 1.215 0 0 1-1.22-1.212V34.42c0-.668.547-1.21 1.22-1.21.672 0 1.218.542 1.218 1.21v32.45c0 .67-.545 1.212-1.218 1.212ZM23.811 22.255c-3.814-2.054-5.238-6.811-3.173-10.604 2.064-3.79 6.848-5.207 10.665-3.155 5.814 3.13 8.954 11.864 9.084 12.235l-2.3.803c-.029-.082-2.961-8.224-7.944-10.907-2.635-1.417-5.937-.439-7.36 2.178-1.426 2.618-.444 5.902 2.19 7.32l-1.162 2.13Z"/><path fill="#fff" d="m54.231 22.255-1.16-2.13a5.378 5.378 0 0 0 2.622-3.21 5.331 5.331 0 0 0-.431-4.11 5.382 5.382 0 0 0-3.226-2.605 5.424 5.424 0 0 0-4.134.427c-4.982 2.682-7.915 10.824-7.944 10.907l-2.3-.804c.131-.37 3.27-9.104 9.084-12.234a7.856 7.856 0 0 1 5.99-.618 7.8 7.8 0 0 1 4.674 3.773 7.726 7.726 0 0 1 .623 5.955 7.79 7.79 0 0 1-3.798 4.65ZM61.95 51.856H16.093a1.215 1.215 0 0 1-1.219-1.21c0-.67.546-1.212 1.219-1.212H61.95c.672 0 1.218.543 1.218 1.211 0 .669-.545 1.211-1.218 1.211Z"/></svg>